<?xml version="1.0"?><svg width="640" height="480" xmlns="http://www.w3.org/2000/svg">
 <title>phone</title>
 <g>
  <metadata id="CorelCorpID_0Corel-Layer"/>
  <g id="_152222920">
   <path id="_152222248" class="fil0" d="m130.723419,163.260223c-63.68689,36.769196 33.485107,218.94101 103.175903,178.7052c12.375946,21.435913 52.239471,90.48172 64.615326,111.917145c-29.403839,16.976685 -54.292664,27.678772 -88.382416,8.191437c-94.650497,-54.107361 -198.835961,-234.496292 -195.871769,-342.09008c1.029451,-37.370918 23.047028,-52.013573 51.846958,-68.641113c12.375931,21.435272 52.239479,90.481087 64.615311,111.917168l0.000687,0.000244z"/>
   <path id="_150519168" class="fil0" d="m157.438583,160.224701c-6.881241,3.973053 -15.736542,1.601593 -19.710312,-5.28035l-60.915039,-105.508446c-3.97377,-6.882767 -1.602295,-15.737228 5.279648,-19.711l32.015518,-18.483825c6.881943,-3.973772 15.738632,-1.60019 19.7117,5.281762l60.915054,105.507744c3.973053,6.881355 1.600891,15.736504 -5.28035,19.709602l-32.01622,18.484512z"/>
   <path id="_226148072" class="fil0" d="m323.85318,448.464722c-6.881256,3.973053 -15.736572,1.601563 -19.710327,-5.281097l-60.915039,-105.508423c-3.97377,-6.88205 -1.60228,-15.737213 5.279633,-19.710266l32.015533,-18.484558c6.881958,-3.973083 15.738678,-1.599487 19.711731,5.281738l60.915039,105.507751c3.973053,6.88205 1.600891,15.737244 -5.280396,19.710297l-32.016174,18.484558z"/>
  </g>
  <title>Layer 1</title>
 </g>

</svg>