<?xml version="1.0" ?><!DOCTYPE svg  PUBLIC '-//W3C//DTD SVG 1.1//EN'  'http://www.w3.org/Graphics/SVG/1.1/DTD/svg11.dtd'><svg height="32px" style="enable-background:new 0 0 32 32;" version="1.1" viewBox="0 0 32 32" width="32px" x="0px" xml:space="preserve" xmlns="http://www.w3.org/2000/svg" xmlns:xlink="http://www.w3.org/1999/xlink" y="0px"><g id="_x31__speaker_loud"><g><polygon points="5.216,11.582 5.216,20.419 10.005,20.419 17.195,23.783 17.195,20.419 17.195,11.582 17.195,8.218 10.005,11.582       "/><path d="M19.926,11.582c0.459,3.233,0.459,6.516,0,9.749c0.621,0.089,1.242,0.177,1.863,0.266c0.484-3.41,0.484-6.871,0-10.28    C21.168,11.405,20.547,11.493,19.926,11.582z"/><path d="M26.148,7.923c-0.619,0.099-1.24,0.196-1.859,0.295c0.816,5.156,0.816,10.409,0,15.565    c0.619,0.098,1.24,0.196,1.859,0.294C26.996,18.727,26.996,13.274,26.148,7.923z"/></g></g><g id="_x31__speaker_medium" style="display:none;"><g style="display:inline;"><polygon points="5.217,11.582 5.217,20.419 10.006,20.419 17.195,23.783 17.195,20.419 17.195,11.582 17.195,8.218 10.006,11.582       "/><path d="M19.926,11.582c0.459,3.233,0.459,6.516,0,9.749c0.621,0.089,1.242,0.177,1.863,0.266c0.484-3.41,0.484-6.871,0-10.28    C21.168,11.405,20.547,11.493,19.926,11.582z"/></g></g><g id="_x31__speaker_off" style="display:none;"><g style="display:inline;"><polygon points="17.195,15.474 17.195,11.582 17.195,8.218 12.252,10.531   "/><polygon points="9.192,11.582 5.217,11.582 5.217,20.418 10.006,20.418 17.195,23.783 17.195,20.418 17.195,19.585   "/></g><rect height="27.296" style="display:inline;" transform="matrix(0.7117 -0.7025 0.7025 0.7117 -6.8621 15.7628)" width="1.806" x="14.87" y="2.593"/></g><g id="_x31__speaker_minus" style="display:none;"><g style="display:inline;"><polygon points="5.217,11.582 5.217,20.419 10.006,20.419 17.195,23.783 17.195,20.419 17.195,11.582 17.195,8.218 10.006,11.582       "/><rect height="1.996" width="9.807" x="19.356" y="15.125"/></g></g><g id="_x31__speaker_plus" style="display:none;"><g style="display:inline;"><polygon points="5.223,11.582 5.223,20.419 10.012,20.419 17.201,23.783 17.201,20.419 17.201,11.582 17.201,8.218 10.012,11.582       "/><polygon points="29.169,15.125 25.264,15.125 25.264,11.22 23.268,11.22 23.268,15.125 19.362,15.125 19.362,17.121     23.268,17.121 23.268,21.026 25.264,21.026 25.264,17.121 29.169,17.121   "/></g></g><g id="_x32__audio_repeat" style="display:none;"><polygon points="29.852,2.297 2.148,2.297 2.148,25.273 14.698,25.273 13.391,23.965 14.912,22.445    4.976,22.445 4.976,5.124 27.025,5.124 27.025,22.445 20.764,22.445 20.764,18.301 19.578,19.486 19.578,19.451 15.096,23.932    15.114,23.951 15.063,24.002 20.764,29.703 20.764,25.273 29.852,25.273  " style="display:inline;"/></g><g id="_x32__audio_repeat_unlimit" style="display:none;"><polygon points="29.852,2.297 2.148,2.297 2.148,25.273 14.698,25.273 13.391,23.965 14.912,22.445    4.975,22.445 4.975,5.125 27.025,5.125 27.025,22.445 20.764,22.445 20.764,18.301 19.578,19.486 19.578,19.451 15.096,23.932    15.114,23.951 15.063,24.002 20.764,29.703 20.764,25.273 29.852,25.273  " style="display:inline;"/><g style="display:inline;"><path d="M11.947,9.856c2.282,0,3.896,0.734,4.842,1.93l0.082-0.015c0.948-1.077,2.506-1.541,4.065-1.541    c2.865,0,4.813,1.301,4.813,3.007c0,1.886-2.199,2.828-4.45,2.828c-1.532,0-3.173-0.403-4.232-1.601h-0.082    c-0.891,1.212-2.477,1.96-4.675,1.96c-3.144,0-5.26-1.452-5.26-3.308C7.049,11.083,9.303,9.856,11.947,9.856z M12.058,15.094    c2.2,0,3.256-0.822,3.952-2.141c-0.611-1.137-2.003-1.751-3.729-1.751c-1.838-0.044-3.451,0.704-3.451,1.946    C8.831,14.331,10.194,15.094,12.058,15.094z M21.104,11.473c-1.811,0-2.782,0.732-3.341,1.854    c0.529,0.839,1.644,1.483,3.283,1.483c1.448,0,2.951-0.464,2.951-1.646C23.997,12.071,22.661,11.473,21.104,11.473z"/></g></g><g id="_x32__audio_simple_repeat" style="display:none;"><path d="M27.332,19.885c0.384-1.23,0.607-2.531,0.607-3.885c0-7.279-5.923-13.202-13.202-13.202   S1.535,8.72,1.535,16c0,7.28,5.923,13.204,13.202,13.204v-4.238c-4.943,0-8.965-4.021-8.965-8.965c0-4.943,4.021-8.964,8.965-8.964   c4.942,0,8.965,4.021,8.965,8.964c0,0.678-0.088,1.333-0.232,1.967L19.507,16l2.76,8.2l8.198-2.762L27.332,19.885z" style="display:inline;"/></g><g id="_x32__audio_simple_repeat_all" style="display:none;"><g style="display:inline;"><path d="M26.951,21.912c0.355-1.139,0.563-2.343,0.563-3.596c0-6.74-5.482-12.223-12.222-12.223    c-5.975,0-10.953,4.313-12.007,9.987h4.022c0.98-3.493,4.184-6.064,7.985-6.064c4.576,0,8.298,3.723,8.298,8.299    c0,0.627-0.08,1.232-0.215,1.82l-3.668-1.82l2.555,7.59l7.59-2.557L26.951,21.912z"/><path d="M6.456,18.302c-0.058-0.134-0.103-0.2-0.135-0.2c-0.062,0-0.158,0.01-0.291,0.029c-0.132,0.02-0.23,0.029-0.295,0.029    c-0.069,0-0.17-0.009-0.304-0.027c-0.134-0.018-0.235-0.026-0.304-0.026c-0.051,0-0.098,0.068-0.141,0.206    c-0.174,0.467-0.311,0.815-0.412,1.047c-0.568,1.396-0.908,2.24-1.02,2.533l-1.329,3.634c-0.051,0.127-0.076,0.208-0.076,0.244    c0,0.051,0.036,0.076,0.108,0.076h1.221c0.08,0,0.192-0.273,0.339-0.819s0.285-0.824,0.415-0.835    c0.083-0.008,0.423-0.011,1.02-0.011h0.857c0.564,0,0.913,0.003,1.047,0.011c0.163,0.007,0.323,0.284,0.48,0.832    c0.158,0.548,0.287,0.822,0.388,0.822c0.068,0,0.171-0.006,0.309-0.017c0.137-0.011,0.24-0.016,0.309-0.016    s0.169,0.005,0.301,0.016c0.132,0.011,0.232,0.017,0.301,0.017c0.087,0,0.13-0.021,0.13-0.065c0-0.025-0.544-1.428-1.633-4.209    C6.971,19.595,6.542,18.504,6.456,18.302z M6.071,23.004H5.512c-0.34,0-0.517-0.001-0.531-0.005    c-0.275-0.021-0.413-0.094-0.413-0.217c0-0.091,0.375-1.091,1.123-3c0.13,0.253,0.353,0.785,0.667,1.595    c0.326,0.835,0.488,1.306,0.488,1.41C6.846,22.932,6.588,23.004,6.071,23.004z"/><path d="M14.988,24.566c-0.058,0-0.141,0.011-0.25,0.032c-0.134,0.022-0.217,0.035-0.25,0.038    c-0.68,0.065-1.687,0.098-3.021,0.098c-0.065,0-0.098-0.401-0.098-1.204c0-0.188,0.001-0.474,0.005-0.856c0-0.384,0-0.669,0-0.857    c0-0.387,0.015-0.966,0.043-1.735c0.029-0.771,0.043-1.348,0.043-1.73c0-0.069-0.043-0.103-0.13-0.103    c-0.065,0-0.167,0.005-0.304,0.016s-0.239,0.016-0.304,0.016c-0.069,0-0.17-0.005-0.304-0.016s-0.233-0.016-0.298-0.016    c-0.09,0-0.136,0.039-0.136,0.119c0,0.419,0.019,1.047,0.057,1.885c0.038,0.837,0.057,1.465,0.057,1.885    c0,0.397-0.013,0.994-0.041,1.79c-0.027,0.795-0.041,1.39-0.041,1.784c0,0.091,0.045,0.136,0.135,0.136    c0.253,0,0.631-0.006,1.134-0.017c0.503-0.011,0.88-0.016,1.134-0.016c0.268,0,0.669,0.015,1.204,0.046    c0.535,0.03,0.937,0.046,1.204,0.046c0.102,0,0.165-0.053,0.19-0.157c0.054-0.214,0.082-0.573,0.082-1.079    C15.102,24.601,15.064,24.566,14.988,24.566z"/><path d="M20.732,24.566c-0.059,0-0.141,0.011-0.25,0.032c-0.133,0.022-0.217,0.035-0.25,0.038    c-0.68,0.065-1.686,0.098-3.021,0.098c-0.065,0-0.098-0.401-0.098-1.204c0-0.188,0.002-0.474,0.005-0.856c0-0.384,0-0.669,0-0.857    c0-0.387,0.016-0.966,0.044-1.735c0.028-0.771,0.044-1.348,0.044-1.73c0-0.069-0.044-0.103-0.131-0.103    c-0.064,0-0.167,0.005-0.304,0.016s-0.239,0.016-0.304,0.016c-0.069,0-0.17-0.005-0.304-0.016s-0.233-0.016-0.298-0.016    c-0.09,0-0.136,0.039-0.136,0.119c0,0.419,0.019,1.047,0.057,1.885c0.038,0.837,0.057,1.465,0.057,1.885    c0,0.397-0.013,0.994-0.041,1.79c-0.027,0.795-0.041,1.39-0.041,1.784c0,0.091,0.045,0.136,0.136,0.136    c0.253,0,0.631-0.006,1.134-0.017c0.502-0.011,0.881-0.016,1.133-0.016c0.268,0,0.67,0.015,1.205,0.046    c0.535,0.03,0.936,0.046,1.203,0.046c0.102,0,0.166-0.053,0.191-0.157c0.053-0.214,0.08-0.573,0.08-1.079    C20.846,24.601,20.809,24.566,20.732,24.566z"/></g></g><g id="_x32__audio_simple_repeat_2" style="display:none;"><g style="display:inline;"><path d="M27.877,19.662c0.385-1.23,0.607-2.531,0.607-3.884c0-7.222-5.83-13.101-13.029-13.194v4.238    c4.863,0.093,8.793,4.071,8.793,8.956c0,0.678-0.088,1.332-0.232,1.966l-3.963-1.966l2.76,8.199l8.197-2.762L27.877,19.662z"/><path d="M7.752,16.222c0-0.678,0.088-1.332,0.232-1.967l3.963,1.967l-2.76-8.199L0.99,10.785l3.133,1.553    c-0.384,1.23-0.607,2.531-0.607,3.885c0,7.223,5.83,13.1,13.03,13.194v-4.238C11.682,25.086,7.752,21.107,7.752,16.222z"/></g></g><g id="_x33__audio_hardware" style="display:none;"><g style="display:inline;"><path d="M9.045,4.883v22.234h13.91V4.883H9.045z M16,6.688c1.449,0,2.623,1.174,2.623,2.623S17.448,11.933,16,11.933    c-1.448,0-2.623-1.174-2.623-2.623S14.551,6.688,16,6.688z M16,25.406c-2.677,0-4.846-2.169-4.846-4.846    c0-2.676,2.169-4.846,4.846-4.846c2.675,0,4.845,2.17,4.845,4.846C20.846,23.237,18.676,25.406,16,25.406z"/><circle cx="16" cy="20.684" r="2.537"/><circle cx="16" cy="9.282" r="0.827"/></g></g><g id="_x33__audio_hardware_2" style="display:none;"><g style="display:inline;"><path d="M28.193,20.785V4.64h-10.1v16.145h4.337v5.742l-4.337,0.832h4.337h1.425h4.338l-4.338-0.832v-5.742H28.193z M23.144,5.95    c1.051,0,1.904,0.853,1.904,1.905c0,1.05-0.854,1.903-1.904,1.903c-1.052,0-1.904-0.853-1.904-1.903    C21.239,6.803,22.092,5.95,23.144,5.95z M23.144,19.543c-1.942,0-3.519-1.574-3.519-3.52c0-1.942,1.576-3.518,3.519-3.518    s3.519,1.576,3.519,3.518C26.662,17.969,25.086,19.543,23.144,19.543z"/><circle cx="23.144" cy="16.113" r="1.842"/><path d="M3.807,20.785h4.337v5.742l-4.337,0.832h4.337h1.425h4.338l-4.338-0.832v-5.742h4.338V4.64h-10.1V20.785z M8.856,5.95    c1.051,0,1.904,0.853,1.904,1.905c0,1.05-0.854,1.903-1.904,1.903c-1.052,0-1.904-0.853-1.904-1.903    C6.952,6.803,7.805,5.95,8.856,5.95z M8.856,12.505c1.942,0,3.519,1.575,3.519,3.518c0,1.946-1.576,3.52-3.519,3.52    s-3.519-1.574-3.519-3.52C5.338,14.081,6.914,12.505,8.856,12.505z"/><circle cx="8.856" cy="16.113" r="1.842"/></g></g><g id="_x32__audio_simple_random" style="display:none;"><g style="display:inline;"><polygon points="24.518,11.643 24.518,14.864 28.852,10.53 24.518,6.196 24.518,9.419 19.943,9.419 19.943,9.434 19.932,9.421     7.995,21.357 3.149,21.357 3.149,23.581 8.907,23.581 8.907,23.572 8.915,23.581 20.854,11.643   "/><polygon points="12.917,15.564 14.489,13.992 8.915,8.419 8.906,8.427 8.906,8.419 3.148,8.419 3.148,10.643 7.994,10.643   "/><polygon points="24.518,20.357 20.854,20.357 17.069,16.572 15.497,18.145 19.932,22.579 19.944,22.566 19.944,22.581     24.518,22.581 24.518,25.804 28.852,21.47 24.518,17.136   "/></g></g><g id="_x34__audio_rewind" style="display:none;"><path d="M26.844,5.141c-0.508-0.21-1.094-0.094-1.482,0.296l-8.722,8.719V6.399   c0-0.551-0.331-1.047-0.84-1.258c-0.509-0.211-1.094-0.094-1.483,0.295l-9.601,9.602C4.459,15.293,4.316,15.64,4.316,16   c0,0.361,0.144,0.708,0.399,0.963l9.601,9.602c0.261,0.26,0.609,0.398,0.962,0.398c0.175,0,0.352-0.032,0.521-0.104   c0.509-0.21,0.84-0.707,0.84-1.258v-7.759l8.722,8.722c0.26,0.26,0.607,0.398,0.961,0.398c0.176,0,0.354-0.032,0.521-0.104   c0.51-0.21,0.84-0.707,0.84-1.258V6.398C27.684,5.848,27.354,5.352,26.844,5.141z" style="display:inline;"/></g><g id="_x34__audio_play" style="display:none;"><path d="M9.839,17.842v-3.688V6.398c0-0.551,0.33-1.047,0.84-1.258c0.508-0.211,1.094-0.094,1.482,0.295   l9.602,9.602c0.256,0.255,0.398,0.602,0.398,0.962c0,0.361-0.143,0.708-0.398,0.963l-9.602,9.603   c-0.26,0.26-0.608,0.398-0.962,0.398c-0.175,0-0.353-0.033-0.521-0.104c-0.51-0.211-0.84-0.707-0.84-1.258V17.842z" style="display:inline;"/></g><g id="_x34__audio_step_back" style="display:none;"><path d="M21.321,5.141c-0.508-0.211-1.094-0.094-1.482,0.295l-9.5,9.5V5.038c0-0.276-0.224-0.5-0.5-0.5   H8.467c-0.276,0-0.5,0.224-0.5,0.5v21.925c0,0.276,0.224,0.5,0.5,0.5h1.372c0.276,0,0.5-0.224,0.5-0.5v-9.898l9.5,9.5   c0.26,0.26,0.608,0.398,0.962,0.398c0.175,0,0.353-0.033,0.521-0.104c0.51-0.211,0.84-0.707,0.84-1.258v-7.76v-3.687V6.399   C22.161,5.848,21.831,5.352,21.321,5.141z" style="display:inline;"/></g><g id="_x34__audio_step_forward" style="display:none;"><path d="M9.742,5.141c0.508-0.211,1.094-0.094,1.482,0.295l9.5,9.5V5.037c0-0.276,0.225-0.5,0.5-0.5h1.373   c0.275,0,0.5,0.224,0.5,0.5v21.926c0,0.276-0.225,0.5-0.5,0.5h-1.373c-0.275,0-0.5-0.224-0.5-0.5v-9.898l-9.5,9.5   c-0.26,0.26-0.607,0.398-0.961,0.398c-0.176,0-0.354-0.033-0.521-0.104c-0.51-0.211-0.84-0.707-0.84-1.258v-7.76v-3.688V6.398   C8.902,5.848,9.232,5.352,9.742,5.141z" style="display:inline;"/></g><g id="_x34__audio_pause" style="display:none;"><path d="M12.211,4.538h-1.372c-0.275,0-0.5,0.224-0.5,0.5v21.925c0,0.276,0.225,0.5,0.5,0.5h1.372   c0.276,0,0.5-0.224,0.5-0.5V5.038C12.711,4.761,12.487,4.538,12.211,4.538z" style="display:inline;"/><path d="M21.661,4.538h-1.372c-0.275,0-0.5,0.224-0.5,0.5v21.925c0,0.276,0.225,0.5,0.5,0.5h1.372   c0.276,0,0.5-0.224,0.5-0.5V5.038C22.161,4.761,21.938,4.538,21.661,4.538z" style="display:inline;"/></g><g id="_x34__audio_title_back" style="display:none;"><path d="M27.129,5.141c-0.508-0.21-1.094-0.094-1.482,0.296l-8.723,8.719V6.399   c0-0.551-0.33-1.047-0.84-1.258c-0.508-0.211-1.094-0.094-1.482,0.295l-8.198,8.198V5.037c0-0.276-0.224-0.5-0.5-0.5H4.531   c-0.275,0-0.5,0.224-0.5,0.5v21.926c0,0.275,0.225,0.5,0.5,0.5h1.372c0.276,0,0.5-0.225,0.5-0.5v-8.597l8.198,8.198   c0.26,0.26,0.608,0.398,0.962,0.398c0.175,0,0.353-0.032,0.521-0.104c0.51-0.21,0.84-0.707,0.84-1.258v-7.759l8.723,8.722   c0.26,0.26,0.607,0.398,0.961,0.398c0.176,0,0.354-0.032,0.521-0.104c0.51-0.21,0.84-0.707,0.84-1.258V6.398   C27.969,5.848,27.639,5.352,27.129,5.141z" style="display:inline;"/></g><g id="_x34__audio_title_forward" style="display:none;"><path d="M4.871,5.141c0.508-0.21,1.094-0.094,1.482,0.296l8.723,8.719V6.399   c0-0.551,0.33-1.047,0.84-1.258c0.508-0.211,1.094-0.094,1.482,0.295l8.198,8.198V5.037c0-0.276,0.224-0.5,0.5-0.5h1.372   c0.275,0,0.5,0.224,0.5,0.5v21.926c0,0.275-0.225,0.5-0.5,0.5h-1.372c-0.276,0-0.5-0.225-0.5-0.5v-8.597l-8.198,8.198   c-0.26,0.26-0.608,0.398-0.962,0.398c-0.175,0-0.353-0.032-0.521-0.104c-0.51-0.21-0.84-0.707-0.84-1.258v-7.759l-8.723,8.722   c-0.26,0.26-0.607,0.398-0.961,0.398c-0.176,0-0.354-0.032-0.521-0.104c-0.51-0.21-0.84-0.707-0.84-1.258V6.398   C4.031,5.848,4.361,5.352,4.871,5.141z" style="display:inline;"/></g><g id="_x34__audio_stop" style="display:none;"><path d="M26.167,4.833H5.833c-0.552,0-1,0.448-1,1v20.334c0,0.553,0.448,1,1,1h20.334c0.553,0,1-0.447,1-1   V5.833C27.167,5.281,26.72,4.833,26.167,4.833z" style="display:inline;"/></g><g id="_x35__favorite_star" style="display:none;"><polygon points="16,5.521 19.477,12.562    27.244,13.691 21.623,19.171 22.951,26.91 16,23.256 9.051,26.91 10.378,19.171 4.756,13.691 12.525,12.562  " style="display:inline;fill:none;stroke:#000000;stroke-width:2;stroke-miterlimit:10;"/></g><g id="_x35__favorite_cricle_star" style="display:none;"><path d="M16,2.802C8.711,2.802,2.802,8.711,2.802,16S8.711,29.198,16,29.198S29.198,23.289,29.198,16   S23.289,2.802,16,2.802z M22.892,25.691L16,22.068l-6.89,3.623l1.316-7.674l-5.574-5.433l7.704-1.12L16,4.485l3.447,6.98   l7.701,1.12l-5.573,5.433L22.892,25.691z" style="display:inline;"/></g><g id="_x35__favorite_half_star" style="display:none;"><polygon points="22.696,24.385 22.696,22.125 17.075,25.082 18.149,18.82 13.602,14.389 19.886,13.475    22.696,7.781 22.696,3.263 22.696,3.262 18.558,11.647 9.304,12.993 16,19.52 14.419,28.738  " style="display:inline;"/></g><g id="_x36__micro_sing" style="display:none;"><g style="display:inline;"><path d="M22.502,4.837c-1.713,0-3.205,0.896-4.051,2.233L24.98,13.6c1.381-0.83,2.311-2.317,2.311-4.03    C27.291,6.957,25.146,4.837,22.502,4.837z"/><path d="M17.713,9.57c0,0.452,0.086,0.881,0.205,1.295L6.421,22.359c-0.646,0.404-1.077,1.111-1.077,1.922    c0,0.412,0.119,0.793,0.313,1.127l-0.781,0.781c-0.223,0.223-0.223,0.584,0,0.807s0.583,0.223,0.806,0l0.774-0.775    c0.35,0.211,0.757,0.34,1.197,0.34c0.843,0,1.573-0.451,1.976-1.117l11.395-11.396c0.469,0.151,0.959,0.254,1.479,0.254    c0.178,0,0.346-0.033,0.52-0.052L17.771,9C17.748,9.189,17.713,9.375,17.713,9.57z M16.596,16.478    c-0.662,0-1.198-0.536-1.198-1.197c0-0.662,0.536-1.198,1.198-1.198s1.197,0.536,1.197,1.198    C17.793,15.942,17.258,16.478,16.596,16.478z"/></g></g><g id="_x37__music_node" style="display:none;"><path d="M25.271,19.102c0.006-0.016,0.013-0.029,0.021-0.043c0.004-0.05,0.008-0.101,0.015-0.152   c-0.011-0.028-0.023-0.056-0.034-0.084c-4.762-2.943-4.088-11.651-9.623-14.737c-0.181-0.103-0.358-0.14-0.534-0.153   c-0.061-0.015-0.119-0.038-0.186-0.038c-0.442,0-0.802,0.36-0.802,0.803v17.466c-0.789-0.502-1.798-0.816-2.916-0.816   c-2.496,0-4.521,1.514-4.521,3.38s2.024,3.38,4.521,3.38c2.497,0,4.521-1.514,4.521-3.38c0-0.014-0.005-0.025-0.005-0.039   c0.001-0.01,0.005-0.017,0.005-0.026V11.084c2.626,1.646,2.691,6.202,6.239,7.765c0.474,0.217,1.324,0.368,2.189,0.486   c0.104-0.005,0.2-0.015,0.305-0.015c0.06,0,0.112,0.006,0.169,0.008c0.088-0.017,0.184-0.025,0.273-0.039   C25.025,19.222,25.147,19.16,25.271,19.102z" style="display:inline;"/></g><g id="_x37__music_nodes" style="display:none;"><path d="M26.857,4.773c-0.007-0.045-0.028-0.082-0.038-0.125v-0.23c-0.027-0.016-0.051-0.036-0.078-0.052   c-0.003-0.001-0.006-0.002-0.009-0.003c-0.197-0.458-0.577-0.754-0.973-0.695L12.817,5.6c-0.288,0.043-0.505,0.271-0.63,0.579   c-0.095,0.125-0.162,0.273-0.162,0.442v16.204c-0.731-0.466-1.668-0.758-2.704-0.758c-2.316,0-4.194,1.404-4.194,3.136   s1.878,3.136,4.194,3.136s4.194-1.404,4.194-3.136c0-0.013-0.006-0.023-0.006-0.036c0.001-0.009,0.006-0.016,0.006-0.024v-2.598   v-9.998V8.034l11.813-1.763v14.866c-0.731-0.466-1.668-0.758-2.704-0.758c-2.316,0-4.194,1.404-4.194,3.136   s1.878,3.136,4.194,3.136s4.194-1.404,4.194-3.136c0-0.013-0.006-0.023-0.006-0.036c0.001-0.009,0.006-0.016,0.006-0.024v-2.598   v-9.998V5.388C26.866,5.198,26.891,4.994,26.857,4.773z" style="display:inline;"/></g><g id="_x38__audio_enhancement" style="display:none;"><g style="display:inline;"><path d="M6.375,6.375c0-0.656-0.532-1.188-1.188-1.188S4,5.719,4,6.375v10.438h2.375V6.375z"/><path d="M4,25.625c0,0.656,0.532,1.188,1.188,1.188s1.188-0.531,1.188-1.188V24.25H4V25.625z"/><path d="M13.5,6.375c0-0.656-0.531-1.188-1.188-1.188s-1.188,0.532-1.188,1.188v8.688H13.5V6.375z"/><path d="M11.125,25.625c0,0.656,0.531,1.188,1.188,1.188s1.188-0.531,1.188-1.188V22.5h-2.375V25.625z"/><path d="M20.875,6.375c0-0.656-0.531-1.188-1.188-1.188S18.5,5.719,18.5,6.375v1.25h2.375V6.375z"/><path d="M18.5,25.625c0,0.656,0.531,1.188,1.188,1.188s1.188-0.531,1.188-1.188V15.063H18.5V25.625z"/><path d="M28,6.375c0-0.656-0.531-1.188-1.188-1.188s-1.188,0.532-1.188,1.188v9.688H28V6.375z"/><path d="M25.625,25.625c0,0.656,0.531,1.188,1.188,1.188S28,26.281,28,25.625V23.5h-2.375V25.625z"/><path d="M6.691,18H3.684c-0.214,0-0.388,0.152-0.388,0.34v4.383c0,0.188,0.173,0.34,0.388,0.34h3.007    c0.215,0,0.388-0.151,0.388-0.34V18.34C7.079,18.152,6.906,18,6.691,18z"/><path d="M13.816,16.313H10.81c-0.215,0-0.388,0.152-0.388,0.34v4.383c0,0.188,0.173,0.34,0.388,0.34h3.007    c0.215,0,0.388-0.151,0.388-0.34v-4.383C14.204,16.465,14.031,16.313,13.816,16.313z"/><path d="M21.191,8.844h-3.008c-0.215,0-0.387,0.152-0.387,0.34v4.383c0,0.188,0.172,0.34,0.387,0.34h3.008    c0.215,0,0.387-0.151,0.387-0.34V9.184C21.578,8.996,21.406,8.844,21.191,8.844z"/><path d="M28.316,17.188h-3.008c-0.215,0-0.387,0.152-0.387,0.34v4.383c0,0.188,0.172,0.34,0.387,0.34h3.008    c0.215,0,0.387-0.151,0.387-0.34v-4.383C28.703,17.34,28.531,17.188,28.316,17.188z"/></g></g><g id="_x38__audio_micro" style="display:none;"><g style="display:inline;"><path d="M22.844,16.125v-3.25h-2v3.25c0,2.671-2.173,4.844-4.844,4.844s-4.844-2.173-4.844-4.844v-3.25h-2v3.25    c0,3.487,2.624,6.368,6,6.786v4.964h-4.531v2.188h10.75v-2.188h-4.531v-4.964C20.22,22.493,22.844,19.612,22.844,16.125z"/><rect height="1.688" width="7.563" x="12.219" y="6.75"/><path d="M16,19.563c2.088,0,3.781-1.693,3.781-3.781V9.938h-7.563v5.844C12.219,17.869,13.912,19.563,16,19.563z"/><path d="M16,1.938c-1.928,0-3.501,1.448-3.734,3.313h7.468C19.501,3.385,17.928,1.938,16,1.938z"/></g></g><g id="_x38__audio_headphones" style="display:none;"><g style="display:inline;"><path d="M25.773,15.927c-0.014-0.004-0.027-0.012-0.041-0.017v-1.004c0-5.359-4.361-9.722-9.722-9.722s-9.722,4.362-9.722,9.722    v0.996v10.61c0.569,0.193,1.177,0.305,1.812,0.305c0.184,0,0.366-0.012,0.546-0.029v-4.516v-6.617h0.209    c-0.069-0.009-0.14-0.008-0.209-0.016v-0.733c0-4.061,3.304-7.364,7.365-7.364c4.062,0,7.364,3.303,7.364,7.364v0.731    c-0.076,0.008-0.154,0.007-0.23,0.018h0.209v11.133c0.18,0.018,0.363,0.029,0.547,0.029c0.656,0,1.287-0.119,1.873-0.328V15.927z"/><path d="M5.028,16.537c-1.522,1.002-2.537,2.711-2.537,4.67c0,1.961,1.01,3.688,2.537,4.689V16.537z"/><path d="M27.033,16.577v9.283c1.494-1.008,2.477-2.717,2.477-4.652C29.51,19.273,28.521,17.584,27.033,16.577z"/></g></g></svg>